<?xml version="1.0" encoding="UTF-8" standalone="no"?>
<!-- Created with Inkscape (http://www.inkscape.org/) -->
<svg xmlns:inkscape="http://www.inkscape.org/namespaces/inkscape" xmlns:rdf="http://www.w3.org/1999/02/22-rdf-syntax-ns#" xmlns="http://www.w3.org/2000/svg" xmlns:xlink="http://www.w3.org/1999/xlink" xmlns:ns1="http://sozi.baierouge.fr" xmlns:cc="http://creativecommons.org/ns#" xmlns:sodipodi="http://sodipodi.sourceforge.net/DTD/sodipodi-0.dtd" xmlns:dc="http://purl.org/dc/elements/1.1/" id="svg2" viewBox="0 0 181.96 200" version="1.1" inkscape:version="0.91 r13725">
  <g id="layer1" transform="translate(-160.31 -152.81)">
    <g id="g3060" transform="matrix(.58801 0 0 .58801 103.53 104.16)">
      <g id="g3050" transform="translate(-608.57 -591.43)">
        <path id="path3054" style="fill:#a0a0a0" d="m832.62 1013.3c-1.1276-2.9383 0.0579-89.6 1.6344-119.48 0.2158-4.0903-0.44814-5.5806-7.0101-15.735-3.98-6.21-7.24-12.15-7.24-13.24 0-1.0871-1.7099-3.6814-3.7998-5.7651-2.0899-2.0838-5.4113-6.2636-7.381-9.2886s-13.914-21.475-26.542-41-26.329-40.675-30.446-47c-13.62-20.926-31.377-48.339-38.541-59.5-9.7166-15.137-10.611-21.78-3.4217-25.418 5.8302-2.9506 8.7284-3.1875 25.76-2.1059 14.702 0.93366 88.985 7.831 124.37 11.548 7.975 0.83775 19.9 1.96 26.5 2.494 6.6 0.53393 14.7 1.4116 18 1.9504 9.1305 1.4908 34.141 3.9345 51.9 5.071 8.7448 0.55965 17.745 1.4726 20 2.0288 2.2552 0.55621 8.0104 1.1936 12.79 1.4165 11.366 0.53002 15.555 1.7484 20.466 5.9519 3.9419 3.3741 4.0666 3.6761 4.7116 11.411 0.3878 4.6495 0.2454 9.042-0.3432 10.59-0.5531 1.4549-4.7698 7.9142-9.3704 14.354-9.278 12.987-53.676 75.534-80.005 112.71-9.3488 13.2-19.841 27.917-23.315 32.704-3.4746 4.7874-8.121 11.495-10.325 14.905l-4.02 6.21v41.286c0 38.257-0.40553 44.793-2.5628 41.302-2.0748-3.3571-4.2786-29.066-3.6129-42.148 0.45865-9.0129 0.44554-12.781-0.0739-21.25-0.51997-8.4778-1.3907-15.363-2.3135-18.293-0.60742-1.9287-4.0968 0.23479-5.8516 3.6281-1.737 3.359-5.3892 5.165-10.445 5.165-4.308 0-11.955-3.353-12.827-5.6239-0.32277-0.84114-1.538-1.9438-2.7005-2.4504-1.1625-0.50655-2.8795-1.4687-3.8157-2.138-0.93612-0.66936-2.0041-0.91499-2.3732-0.54585-0.36914 0.36915-0.86523 13.178-1.1024 28.465-0.61474 39.62-0.93887 48.155-2.3847 62.793-1.2604 12.762-2.9324 18.562-4.3133 14.963zm42.715-114.33c0.85166-0.70682 9.7511-12.838 19.776-26.959s20.542-28.824 23.371-32.674c2.8286-3.85 9.431-13.075 14.672-20.5 5.2411-7.425 17.553-24.75 27.36-38.5 29.367-41.175 41.515-58.866 42.161-61.401 0.7072-2.7726-2.1292-8.7341-4.8478-10.189-2.7788-1.4872-11.247-2.8617-24.326-3.9485-11.775-0.97845-21.898-2.0157-58.007-5.9435-9.9-1.0769-24.525-2.646-32.5-3.487-7.975-0.84096-22.825-2.4494-33-3.5744-40.817-4.5127-108.08-11.209-117.44-11.692-8.2259-0.42435-10.5-0.21209-13.178 1.2297-3.6263 1.9529-5.8956 6.3064-4.9084 9.4166 0.52914 1.6672 6.2056 10.569 18.028 28.272 0.55 0.82357 4.1062 6.1817 7.9026 11.907 3.7964 5.7252 7.5216 11.309 8.2781 12.409 5.864 8.526 10.501 15.758 12.823 20 1.5055 2.75 3.5804 5.9 4.6108 7 4.4089 4.7066 6.8852 8.4247 6.8852 10.338 0 1.1269 0.94441 2.7104 2.0987 3.5189 1.1543 0.80849 2.6632 2.5215 3.3533 3.8067 5.1417 9.5767 8.007 14.386 8.7462 14.68 0.4746 0.18894 1.9382 2.4656 3.2525 5.0592s4.2255 7.0383 6.4695 9.8771c2.2439 2.8388 4.0798 5.4472 4.0798 5.7965 0 0.34928 1.0125 1.9065 2.25 3.4605s3.375 4.4625 4.75 6.4633 3.625 5.0216 5 6.7128 4.075 5.937 6 9.4351c1.925 3.498 5.1861 8.7208 7.2468 11.606 2.0608 2.8853 7.7542 11.324 12.652 18.752 4.8979 7.4285 9.7368 14.256 10.753 15.172 3.8334 3.4562 11.567 5.8327 17.993 5.5296 3.38-0.15943 6.8422-0.86818 7.6939-1.575zm-13.84-2.14c-3.1101-1.3008-7.7756-6.8335-12.68-15.037-2.4661-4.125-9.0928-14.25-14.726-22.5s-14.501-21.3-19.707-29c-5.2056-7.7-15.041-22.1-21.857-32-6.8156-9.9-16.795-24.525-22.177-32.5s-18.457-27.183-29.055-42.685-20.021-29.761-20.94-31.688c-1.5598-3.271-1.56-3.6715-0.002-6.049 0.91756-1.4004 2.8095-2.8326 4.2043-3.1826 1.3948-0.35008 13.427 0.53549 26.737 1.9679 13.311 1.4324 35.451 3.7375 49.201 5.1223s28.825 2.9537 33.5 3.4864c4.675 0.53272 13.675 1.4523 20 2.0435 6.325 0.59119 15.1 1.5094 19.5 2.0403 4.4 0.53099 14.3 1.6218 22 2.424 7.7 0.80223 28.625 3.0058 46.5 4.8968s36.276 3.7574 40.892 4.1475c7.6419 0.64586 8.7145 1.0057 12 4.026l3.608 3.3167-1.8108 3.3872c-0.99597 1.863-4.852 7.4314-8.5689 12.374-3.7169 4.9429-8.4356 11.436-10.486 14.429-2.0504 2.9932-5.3773 7.6923-7.3931 10.442-3.6707 5.0076-13.174 18.785-31.04 45-5.2476 7.7-10.749 15.575-12.226 17.5-1.4767 1.925-10.485 14.525-20.019 28-29.126 41.167-35.091 49.101-37.652 50.074-2.9041 1.1042-5.1 1.0936-7.8045-0.0376zm84.51-124.04c3.5694-1.9103 2.0459-4.4308-3.019-4.9946l-4.4911-0.5-0.5247-8.7469c-0.43941-7.325-0.89089-9.1131-2.7772-10.999-3.1057-3.1057-10.81-2.9189-13.255 0.32135-2.3652 3.1356-3.941 1.5894-3.9582-3.884-0.0195-6.1881-1.8321-9.691-5.0148-9.691-2.2456 0-2.4986 0.44187-2.7796 4.8553-0.29942 4.7033-0.3933 4.8363-3 4.2484-8.7503-1.9733-13.695-2.5-14.636-1.5591-1.5581 1.5581 0.63845 4.2489 4.2277 5.179 3.6178 0.93745 4.8045 2.3612 3.3925 4.0702-0.54814 0.66341-1.3275 3.0062-1.732 5.2062-0.40447 2.2-1.3472 5.751-2.0949 7.891-2.2409 6.4138 1.895 8.7524 8.1513 4.609 4.1954-2.7785 6.5-2.6013 6.5 0.5 0 2.4092 3.0697 6.5 4.8776 6.5 2.3972 0 3.375-3.2654 2.8682-9.5788l-0.52553-6.547 5.3255-3.5359c2.929-1.9448 5.737-3.2816 6.2399-2.9708 0.50294 0.31084 1.2149 4.8392 1.5821 10.063 0.76267 10.85 1.158 12.312 3.4674 12.826 1.7301 0.38492 7.5169-1.3042 11.175-3.2619zm-38.483-16.951c-0.95477-1.5449 0.43992-5.2215 1.8078-4.7656 1.5113 0.50377 1.5168 4.9378 0.007 5.4412-0.6371 0.21237-1.4536-0.0917-1.8146-0.67561zm-41.753 11.952c4.0843-2.4902 4.8687-2.4841 10.672 0.0828 4.5657 2.0196 7.5542 2.0162 7.5542-0.009 0-1.9622-4.0788-4.7299-9.4793-6.4323-5.6228-1.7724-8.1934-4.4427-7.0772-7.3514 0.48683-1.2687 1.8114-1.4597 7.1503-1.0311 5.1686 0.41489 6.671 0.21803 7.1123-0.93195 0.90806-2.3664-1.4039-3.76-8.0021-4.8235-5.6843-0.91623-6.204-1.2094-6.204-3.5 0-2.3978 0.25349-2.5 6.1976-2.5 3.4087 0 6.6903-0.49157 7.2924-1.0924 1.7679-1.7641-1.6384-3.814-7.2992-4.3926-4.3146-0.44104-5.2748-0.94566-6.6884-3.515-2.2627-4.1125-6.1954-4.5666-7.8625-0.90769-1.2074 2.6499-1.3356 2.6816-8.6278 2.1301-5.3842-0.4072-7.6931-0.20922-8.4695 0.72622-1.7509 2.1097 1.2479 3.6795 8.17 4.2768 7.7919 0.67227 10.005 1.7313 9.598 4.5923-0.2915 2.0476-0.83552 2.1823-8.8107 2.1823-8.0564 0-9 0.25184-9 2.4022 0 1.443 5.8905 3.0978 11.027 3.0978 5.0118 0 7.6514 1.7902 6.6165 4.4873-0.41867 1.091-2.0809 1.5127-5.9626 1.5127-11.65 0-15.778 4.5244-9.1487 10.027 3.7638 3.1237 16.738 3.716 21.242 0.96975zm-14.231-4.9272c-0.31644-0.512-0.11397-1.216 0.44993-1.5646 1.3149-0.81265 5.0074 0.3398 5.0074 1.5628 0 1.2136-4.7074 1.2151-5.4573 0.002zm-18.653 2.5636c1.9539-2.3543-1.0994-3.6693-11.562-4.9798l-9.8276-1.2309-0.29633-6.7392-0.29633-6.7392 4.2963-1.9499c2.363-1.0724 4.9837-1.9598 5.8238-1.9718 0.84013-0.0121 2.5491-0.7375 3.7977-1.6121 1.88-1.3168 2.0543-1.8502 1.014-3.1037-0.94059-1.1333-2.2715-1.3406-5.2977-0.82486-9.2092 1.5694-9.0074 1.6718-9.3417-4.7412-0.25592-4.9104-0.67938-6.0083-2.8712-7.4444-4.57-2.97-5.35-0.34-5.35 17.93 0 17.455-0.054 17.596-6.128 16.026l-3.372-0.87142-0.29012-9.3846c-0.31022-10.035-1.096-11.993-4.8133-11.993-2.8536 0-3.2994 1.5288-3.6448 12.5l-0.25185 8-3.6094 0.10411c-4.415 0.12734-5.9802 0.99864-5.2434 2.9188 0.87696 2.2853 6.4036 3.325 26.853 5.0516 10.45 0.88234 19.188 1.789 19.417 2.0149 1.0694 1.0538 9.947 0.27976 10.973-0.95672z"/>
        <path id="path3052" style="fill:#0f0f0f" d="m833.65 998.32c-1.6407-4.2755 0.59184-93.104 2.5332-100.79 1.4228-5.634 0.54613-7.8872-8.561-22.004-3.09-4.8-5.62-9.65-5.62-10.78 0-1.131-2.024-4.1094-4.4979-6.6188-2.4738-2.5093-7.8179-9.8006-11.876-16.203-4.0578-6.4022-17.18-26.715-29.161-45.14s-26.586-40.925-32.455-50c-5.8695-9.075-16.58-25.628-23.802-36.783-13.05-20.161-15.639-25.787-13.212-28.712 1.5384-1.8537 12.048-7.5956 12.919-7.0578 0.35577 0.21988 6.033 0.89985 12.616 1.511 6.5831 0.61119 32.669 3.0979 57.969 5.526s53.425 5.1269 62.5 5.9973c9.075 0.87042 23.7 2.2524 32.5 3.071 8.8 0.81865 18.025 1.9127 20.5 2.4313 5.8065 1.2166 23.414 2.8728 43 4.0447 8.525 0.51008 18.425 1.3999 22 1.9773 3.575 0.57742 11.406 1.4751 17.403 1.9948 13.021 1.1285 15.934 2.0061 20.792 6.2622 3.4777 3.0469 3.7331 3.6791 4.3461 10.759l0.6513 7.5216-9.9246 13.978c-5.4586 7.6881-20.949 29.503-34.423 48.478s-33.43 47.1-44.347 62.5-23.744 33.4-28.505 40c-4.7612 6.6-9.2652 13.125-10.009 14.5-1.0735 1.9848-1.3239 10.026-1.2148 39.017 0.12394 32.945-0.54371 44.301-2.1713 36.93-0.92008-4.1664-0.94746-5.3599-0.18505-8.0636 0.40568-1.4386 0.274-4.3636-0.29262-6.5-0.56663-2.1364-0.99685-7.2593-0.95605-11.384 0.0408-4.125 0.15307-13.575 0.24949-21 0.0964-7.425-0.12645-13.95-0.49527-14.5s-0.9826-3.5804-1.364-6.7342c-0.38136-3.1538-1.0312-5.943-1.444-6.1982-1.2898-0.79715-7.0966 3.3102-8.2459 5.8327-0.74072 1.6257-2.5338 2.8075-5.5344 3.6476-4.0344 1.1296-4.889 1.0318-9.3839-1.0735-2.65-1.29-4.88-2.67-4.88-3.09 0-0.85934-8.6042-6.8506-10.316-7.1829-0.64851-0.12592-1.4913 2.301-2.0083 5.783-1.0396 7.0023-1.066 8.1876-0.62174 28 0.37867 16.889-1.5973 57.861-2.903 60.194-0.74768 1.336-0.93382 1.3154-1.5024-0.16628zm43.302-99.278c1.6404-1.5125 5.6622-6.575 8.9373-11.25s6.9274-9.85 8.1163-11.5c15.65-21.72 28.918-40.25 32.578-45.5 2.4929-3.575 6.3249-8.975 8.5155-12s4.7467-6.625 5.6801-8c0.93341-1.375 10.219-14.425 20.636-29 10.416-14.575 20.662-28.975 22.769-32 20.079-28.83 19.806-28.383 19.812-32.538 0-2.9448-0.7393-4.9296-2.7454-7.3325-3.2092-3.8441-6.3955-4.638-24.749-6.1664-11.772-0.9803-21.935-2.0221-58-5.945-9.9-1.0769-24.525-2.646-32.5-3.487-7.975-0.84096-22.825-2.4494-33-3.5744-34.089-3.7689-75.48-8.0568-77.5-8.0285-1.1 0.0154-5.6-0.42791-10-0.98513-4.4-0.55723-10.25-1.1995-13-1.4272-2.75-0.22775-6.8-0.72307-9-1.1007-4.7824-0.82093-5.6701-0.85432-16.144-0.6073-7.4777 0.17635-8.3984 0.42951-11.25 3.0933-5.6347 5.2636-4.3694 9.5923 7.9209 27.099 3.282 4.675 5.9687 8.8743 5.9704 9.3317 0.002 0.45744 1.4992 2.7074 3.3278 5 1.8287 2.2926 5.4138 7.5433 7.9669 11.668 2.5531 4.125 6.606 10.2 9.0064 13.5s5.5404 8.5875 6.9778 11.75 3.0884 5.75 3.6688 5.75c0.58042 0 1.0553 0.72013 1.0553 1.6003 0 0.88016 2.025 3.6543 4.5 6.1648 2.7068 2.7456 4.5 5.4813 4.5 6.8652 0 1.2654 1.3188 3.6499 2.9307 5.2988s4.6094 6.052 6.6611 9.7845 4.4092 7.5812 5.2388 8.5525c0.82966 0.97135 2.8947 3.9837 4.5889 6.6941 3.4562 5.5292 15.072 22.432 19.613 28.54 1.6356 2.2 3.7599 5.2777 4.7205 6.8394 0.96063 1.5617 3.9966 6.2351 6.7466 10.386 2.75 4.1504 5.8798 8.9477 6.955 10.661 1.0753 1.713 3.8774 5.8145 6.227 9.1145s5.6632 8.3588 7.3636 11.242c6.3306 10.733 12.092 14.042 24.689 14.179 6.5579 0.0716 7.5131-0.17816 10.217-2.671zm-17.847-5.8159c-1.6772-1.4112-5.4085-6.4738-8.2918-11.25s-8.1542-12.959-11.713-18.184c-3.5589-5.225-10.325-15.181-15.035-22.125-15.254-22.487-26.614-39.139-34.367-50.375-4.1741-6.05-12.781-18.65-19.126-28-6.3451-9.35-16.746-24.65-23.112-34-25.881-38.009-26.638-39.207-26.295-41.621 0.68726-4.8388 3.5604-5.0887 27.96-2.4319 12.306 1.34 33.85 3.5873 47.875 4.9941s29.325 2.9946 34 3.5286c4.675 0.53397 13.675 1.4546 20 2.0458 6.325 0.59119 15.1 1.5094 19.5 2.0403 4.4 0.53099 14.3 1.6219 22 2.4243 7.7 0.80238 29.075 3.0338 47.5 4.9588s37.487 3.9108 42.36 4.4129c7.502 0.77305 9.2537 1.307 11.431 3.4848 2.3313 2.3313 2.454 2.8333 1.3115 5.3677-1.156 2.5644-5.9667 9.3987-13.602 19.324-1.65 2.1448-5.025 6.8759-7.5 10.514-2.475 3.6377-6.3 9.0189-8.5 11.958-2.2 2.9393-10.3 14.638-18 25.998s-16.333 23.882-19.185 27.828c-2.8515 3.9457-10.133 14.149-16.181 22.674-17.739 25.004-19.732 27.802-30.28 42.5-5.5258 7.7-10.765 14.562-11.642 15.25-2.6689 2.0919-7.7778 1.4867-11.108-1.3159zm85.37-117.87c3.8391-1.6978 5.5285-3.0118 5.5285-4.3 0-2.8396-2.0268-4.255-6.093-4.255-4.5196 0-4.907-0.83528-4.907-10.582 0-6.053-0.36338-7.7816-1.9746-9.3928-2.7544-2.7545-6.3126-3.4314-12.061-2.2947l-4.9286 0.97451-0.5496-3.6026c-1.136-7.4462-1.8135-8.5825-5.3191-8.9208-4.044-0.39031-6.4723 1.4388-5.8981 4.4428 0.71574 3.7442-0.31242 4.1104-8.5512 3.0461-9.008-1.1637-10.717-0.41537-9.1603 4.0111 0.65456 1.8612 1.9705 2.9574 4.2641 3.5517 3.7318 0.967 3.7207 0.64653 0.48163 13.883-0.89051 3.6391-1.3422 7.3382-1.0038 8.2202 1.0924 2.8468 5.7007 3.2078 9.9236 0.77742 4.0706-2.3427 5.7773-2.1094 5.7773 0.78979 0 2.7467 3.4422 5.2895 6.6616 4.9209 2.8162-0.32241 2.8424-0.38989 3.3384-8.6025l0.5-8.2775 4.1078-2.4444 4.1078-2.4444 1.2418 10.478c1.6118 13.601 3.4891 14.897 14.514 10.021zm-77.109-6.4555c2.8106-1.853 2.9431-1.8517 7.2864 0.0695 6.0492 2.6759 9.7545 2.1675 10.165-1.3947 0.25057-2.1745-0.35611-3.1398-3-4.7735-1.8227-1.1262-5.196-2.5329-7.4961-3.1259-4.0493-1.0439-5.9467-3.0487-4.7374-5.0054 0.33753-0.54613 3.0127-0.6755 6.2933-0.30434 6.6868 0.75652 9.1851-0.87294 7.4194-4.839-0.79207-1.7791-2.2766-2.4276-7.3922-3.2291-4.5711-0.71619-6.4011-1.4309-6.4011-2.5 0-1.1759 1.3945-1.4971 6.5-1.4971 6.1328 0 6.5195-0.13805 6.845-2.444 0.45539-3.2262-2.1678-5.052-7.2861-5.0713-4.8877-0.0184-6.1239-0.71039-7.4363-4.1624-0.69038-1.8158-2.0166-2.8598-4.259-3.3522-2.819-0.61916-3.5657-0.32941-5.5598 2.1574-2.1796 2.7182-2.7199 2.8726-10.054 2.8726-7.711 0-7.7518 0.0139-8.0666 2.7495-0.37063 3.2211 2.4678 4.7505 8.8164 4.7505 4.895 0 9.2887 1.6359 8.7457 3.2562-0.28832 0.86022-3.0121 1.2438-8.8313 1.2438-7.8526 0-8.4349 0.14378-8.7213 2.1534-0.46616 3.271 3.3148 5.344 9.7794 5.3619 3.0401 0.008 6.1476 0.40811 6.9056 0.8882 2.7072 1.7148-0.0659 3.0965-6.2146 3.0965-7.5626 0-10.663 1.7751-10.663 6.1044 0 3.7412 3.9632 7.6302 8.3344 8.1784 8.9474 1.1222 16.217 0.67007 19.028-1.1834zm-32.546-4.349c0.39908-3.4683-1.7935-4.4037-12.508-5.3358-4.2947-0.37364-8.371-1.1249-9.0585-1.6694-1.3439-1.0645-1.6957-8.5513-0.48469-10.316 0.40408-0.58869 3.8847-2.1637 7.7347-3.5 6.1705-2.1418 7.0374-2.7545 7.3156-5.1712 0.45735-3.9728-3.1037-5.4269-9.4048-3.8403-2.589 0.65193-5.0649 0.82454-5.5018 0.38359-0.43695-0.44095-0.93273-3.268-1.1017-6.2824-0.2795-4.9852-0.56063-5.5693-3.11-6.4616-5.6406-1.9742-6.1418-0.6609-6.6972 17.549l-0.5 16.393-2.5856 0.30056c-3.9322 0.45709-4.8082-1.5658-5.1243-11.833-0.28689-9.3194-0.3213-9.4352-3.0929-10.407-5.0454-1.77-6.133-0.0576-6.6972 10.544l-0.5 9.3957-3.496 0.3317c-4.12 0.39-5.99 1.72-5.99 4.27 0 3.5951 3.9288 4.6153 24.495 6.3608 10.997 0.93332 20.202 1.9039 20.455 2.1568 0.25291 0.2529 3.8551 0.33006 8.0048 0.17145 7.4056-0.28304 7.5508-0.33917 7.8613-3.0379zm60.418 123.34c3.7041-5.2745 10.571-14.99 15.261-21.59 4.6893-6.6 10.524-14.925 12.966-18.5 2.4419-3.575 6.9473-9.875 10.012-14s7.1215-9.75 9.0151-12.5 4.8881-7.025 6.6544-9.5 8.6095-12.15 15.207-21.5c11.191-15.859 16.88-23.896 35.694-50.422 8.0233-11.312 10.608-15.668 11.066-18.651 0.43-2.8021-0.9684-7.4268-2.2458-7.4268-0.6173 0-0.8609 0.90497-0.5567 2.0682 0.7716 2.9505-1.0815 7.5934-5.5604 13.932-2.1375 3.025-7.3426 10.355-11.567 16.29-8.604 12.087-18.402 26.016-27.23 38.71-5.8189 8.3676-17.322 24.649-41.95 59.375-24.057 33.921-38 54.405-38 55.827 0 2.1499 5.019-3.2608 11.235-12.112z"/>
      </g>
      <path id="path3056" style="stroke-width:10;fill:#000000" d="m252.44 302.4c-2.877-1.9163-4.6068-4.2598-16.473-22.317-6.067-9.2321-27.593-41.054-47.836-70.714-44.413-65.076-70.397-103.5-72.978-107.92-2.1565-3.6921-2.4435-6.4658-0.80945-7.8219 2.3881-1.982 13.565-0.9637 164.97 15.029 25.929 2.7389 59.267 6.2531 74.085 7.8092 14.818 1.5562 27.675 3.2076 28.571 3.6698 2.4084 1.2424 4.8434 3.6302 4.8434 4.7493 0 1.3983-4.0474 7.5437-12.827 19.476-8.102 11.012-21.88 30.628-40.391 57.508-23.244 33.752-68.76 97.233-72.138 100.61-1.561 1.561-6.6163 1.5158-9.0131-0.0806zm81.606-117.35c7.4115-2.9213 9.3442-5.5251 6.3348-8.5345-1.002-1.002-2.381-1.4286-4.6177-1.4286-2.312 0-3.369-0.34379-3.843-1.25-0.35958-0.6875-0.88803-4.7651-1.1743-9.0613-0.48137-7.2232-0.66794-7.9587-2.4782-9.7689-2.468-2.468-6.0651-3.1556-11.691-2.2346-2.4253 0.39699-4.4913 0.65042-4.591 0.56318-0.0997-0.0872-0.52617-2.0592-0.94765-4.3821-1.1367-6.2648-2.1215-7.4377-6.2446-7.4377-4.1096 0-5.1264 0.86882-5.1264 4.3804 0 3.3662-0.74981 3.6163-8.469 2.8246-9.0437-0.92756-11.106 0.0612-9.414 4.5127 0.4828 1.2699 1.748 2.3843 3.5854 3.158 1.5616 0.65763 2.9835 1.5633 3.1598 2.0126 0.17626 0.44931-0.12708 2.86-0.6741 5.3572-3.2056 14.634-3.1515 16.007 0.68524 17.374 1.4581 0.51943 2.7695 0.36978 5.2832-0.60289 5.552-2.1484 7.2721-2.2823 7.2721-0.56609 0 3.613 6.0461 6.9598 8.8582 4.9035 1.0912-0.79791 1.4177-2.34 1.8158-8.5765 0.26695-4.182 0.62629-7.7243 0.79852-7.8718 0.17225-0.14749 1.8279-1.1423 3.6793-2.2106l3.3661-1.9425 0.34461 1.6594c0.18955 0.91264 0.69975 4.3915 1.1338 7.7308 0.83378 6.4147 1.869 10.487 3.0413 11.964 1.0669 1.3442 5.7342 1.0745 9.9132-0.57268zm-74.894-7.3771c2.6646-1.3226 2.7503-1.3202 6.6707 0.17999 4.0285 1.5416 7.8036 1.9328 9.3234 0.96598 0.45993-0.29257 1.0406-1.3462 1.2904-2.3414 0.71832-2.862-1.7545-5.2784-7.6662-7.4913-6.0795-2.2757-8.6338-4.2525-6.9604-5.3867 0.58928-0.3994 3-0.58138 5.3571-0.4044 7.0972 0.53288 8.9909-0.63094 7.9266-4.8715-0.48028-1.9136-1.196-2.2641-7.8683-3.853-6.3972-1.5234-7.0278-2.9247-1.3678-3.0395 2.2917-0.0465 5.131-0.29071 6.3095-0.54273 1.8841-0.40289 2.1429-0.75924 2.1429-2.9512 0-2.1351-0.35895-2.6723-2.5-3.7419-1.375-0.68689-3.7265-1.2494-5.2255-1.25-3.4781-0.001-5.199-0.9403-6.5649-3.5816-1.1413-2.207-4.3411-4.2766-6.6119-4.2766-0.73172 0-2.2562 0.96632-3.3877 2.1474-2.536 2.6471-5.6478 3.5578-12.174 3.5629-6.6596 0.005-8.515 1.9518-5.4583 5.7266 1.0718 1.3237 2.3346 1.6902 7.4193 2.1537 6.2284 0.56769 9.5244 1.6482 8.7669 2.8738-0.23061 0.37314-1.9271 0.68073-3.77 0.68352-1.8429 0.003-5.5132 0.20933-8.1563 0.45896-3.8647 0.36501-4.8902 0.72049-5.2378 1.8156-1.0789 3.3993 3.9908 6.2918 11.028 6.2918 1.5683 0 3.7454 0.33989 4.8381 0.7553 2.8749 1.093 1.1137 1.9025-5.4304 2.4957-7.2629 0.65841-9.7643 1.7492-10.374 4.5238-0.9095 4.141 0.96403 7.2602 5.6962 9.4836 3.9763 1.8682 17.937 1.6226 21.985-0.38679zm-34.986-1.8169c3.0339-1.1535 3.3114-4.9792 0.47145-6.4991-1.0622-0.56846-15.389-2.8413-17.91-2.8413-0.29156 0-1.0352-0.5051-1.6526-1.1224-1.3805-1.3805-1.55-8.3486-0.22959-9.442 0.49107-0.40663 3.4643-1.7581 6.6071-3.0032 6.3477-2.5148 8.2143-3.85 8.2143-5.8757 0-4.0849-3.1379-5.3724-10.042-4.1204-5.3292 0.96636-5.3608 0.93591-6.0388-5.8156-0.26782-2.6668-0.92478-5.2103-1.4606-5.655-0.53565-0.44456-2.2645-0.98138-3.8419-1.193-2.6481-0.35519-2.9296-0.22705-3.6718 1.6714-0.44215 1.1308-1.1104 8.798-1.485 17.038-0.4629 10.183-0.95453 15.154-1.5347 15.519-0.8854 0.55731-3.283 0.0898-4.2862-0.83571-0.80465-0.74232-1.8931-8.7934-1.9103-14.13-0.0172-5.3568-1.4519-7.3214-5.3464-7.3214-3.4199 0-4.0634 1.5229-4.9767 11.778l-0.76267 8.5636-3.434 0.49016c-4.211 0.60108-5.4946 1.5914-5.4946 4.2392 0 3.9619 2.512 4.6127 28.571 7.4013 16.646 1.7813 27.475 2.1949 30.213 1.1539z"/>
      <path id="path3058" style="stroke-width:10;fill:#000000" d="m225.04 402.19c-0.27039-2.9233-0.12771-20.262 0.31705-38.529 0.73572-30.218 1.3147-43.199 2.6134-58.599 0.52405-6.2137 0.38438-6.5761-7.5602-19.616-2.6329-4.3214-5.3394-9.3036-6.0145-11.071-0.67503-1.7678-3.4624-5.9464-6.1942-9.2857-5.4766-6.6946-7.4657-9.6997-55.787-84.286-52.147-80.49-54.173-83.791-54.173-88.247 0-1.9841 0.48958-2.6321 3.3994-4.4993 6.4717-4.1529 9.3268-5.0361 14.101-4.362 2.3571 0.33282 39.964 4.0068 83.571 8.1645 43.607 4.1576 86.839 8.5072 96.071 9.6657 9.2322 1.1585 25.625 2.7638 36.429 3.5672 24.493 1.8214 56.363 5.3448 61.118 6.7568 3.5401 1.0513 8.9608 5.0038 10.304 7.513 0.37956 0.7092 1.0186 4.189 1.42 7.733l0.72993 6.4435-36.176 50.954c-19.897 28.025-46.356 65.258-58.797 82.74-12.442 17.482-25.011 35.261-27.931 39.508l-5.3099 7.7218-0.35714 37.398c-0.19643 20.569-0.59822 37.639-0.89286 37.933-0.77906 0.77832-0.66707 3.2191-1.8217-39.703-0.4814-17.896-0.97837-26.089-1.8152-29.924-0.63377-2.9048-1.31-5.4392-1.5027-5.6319-0.839-0.839-4.963 1.7278-7.613 4.7383-3.2745 3.72-5.9941 5.1036-10.032 5.1036-2.9854 0-8.9521-2.6381-10.653-4.7104-1.3468-1.6405-9.1994-6.7182-10.389-6.7182-2.161 0-2.6066 5.4457-3.1561 38.571-0.53495 32.251-1.5814 52.729-2.8063 54.918-0.38801 0.69333-0.77167-0.8006-1.0903-4.2454zm39.811-92.139c1.9424-0.53943 3.6586-1.9192 6.2292-5.0081 5.4229-6.5163 101.86-141.75 116.22-162.98 4.9895-7.375 8.126-12.708 8.1924-13.929 0.30713-5.6413-1.2888-9.6445-4.7485-11.911-2.1155-1.3861-9.0002-2.9922-15.359-3.5829-12.35-1.1473-77.582-7.8897-100.71-10.41-14.339-1.5622-47.929-5.092-74.643-7.8439-26.714-2.752-54.593-5.7101-61.953-6.5736-11.453-1.3436-14.481-1.4642-21.005-0.83658-7.4726 0.7189-7.6698 0.78435-9.9886 3.3146-3.0858 3.3671-3.5912 5.6157-2.2236 9.8924 0.92912 2.9054 8.7756 15.7 17.9 29.187 15.321 22.648 23.192 34.722 25.14 38.564 1.297 2.5578 3.0302 5.3604 3.8515 6.2279 0.82138 0.8675 1.4934 1.8834 1.4934 2.2577 0 0.37421 1.9182 3.028 4.2626 5.8973s4.4603 6.117 4.7019 7.2172c0.24164 1.1002 1.634 3.5224 3.0942 5.3826 1.4601 1.8602 4.9458 7.0787 7.746 11.597 2.8001 4.5179 9.2862 14.321 14.414 21.786 5.1273 7.4643 18.436 27.232 29.576 43.929 11.431 17.134 21.449 31.407 22.999 32.768 1.5103 1.3259 3.8944 2.8944 5.298 3.4854 4.8987 2.0628 14.853 2.8613 19.519 1.5656zm14.205-3.3546c3.3211-3.5119 6.5073-7.8284 20.958-28.393 6.6256-9.4286 18.688-26.464 26.805-37.857 30.423-42.701 65.127-91.951 69.96-99.284 6.0023-9.1072 6.9425-11.727 5.6194-15.661-1.3667-4.0628-2.4502-3.9384-2.9568 0.33936-0.23834 2.0125-1.1953 5.0223-2.1265 6.6885-1.5773 2.8222-15.1 22.127-61.585 87.918-45.623 64.571-60.346 86.021-60.346 87.918 0 1.6288 0.97182 1.1874 3.6717-1.6676z"/>
    </g>
  </g>
  <metadata>
    <rdf:RDF>
      <cc:Work>
        <dc:format>image/svg+xml</dc:format>
        <dc:type rdf:resource="http://purl.org/dc/dcmitype/StillImage"/>
        <cc:license rdf:resource="http://creativecommons.org/licenses/publicdomain/"/>
        <dc:publisher>
          <cc:Agent rdf:about="http://openclipart.org/">
            <dc:title>Openclipart</dc:title>
          </cc:Agent>
        </dc:publisher>
      </cc:Work>
      <cc:License rdf:about="http://creativecommons.org/licenses/publicdomain/">
        <cc:permits rdf:resource="http://creativecommons.org/ns#Reproduction"/>
        <cc:permits rdf:resource="http://creativecommons.org/ns#Distribution"/>
        <cc:permits rdf:resource="http://creativecommons.org/ns#DerivativeWorks"/>
      </cc:License>
    </rdf:RDF>
  </metadata>
</svg>
