<svg xmlns="http://www.w3.org/2000/svg" data-name="Layer 1" viewBox="0 0 90 54.875" x="0px" y="0px"><title>19</title><path d="M61.65,55.46c-3.41-2.9-5.11-.85-5.11-.85-2.73,1.87,4.09,9.88,4.09,9.88a1.77,1.77,0,0,1-2.56.17c-1.36-1.19-4.77-.17-4.43,1.36s1.19-.17,2.21-.34,1.4,1,3,1.07a4.44,4.44,0,0,0-3.67,2.68s-.85,1.53.51,1.36,1.7-2.39,6-2.39c0,0,.85,1.36.34,2.21s2,3.24,2.56-1.7a3.36,3.36,0,0,1,2.39-2c2-.68-.85-6-.85-6A15.91,15.91,0,0,0,61.65,55.46Z" transform="translate(-5 -28.05)"/><path d="M22,59c.17,3.92-2.73,2.73-4.26,3.92s0,1.19,0,1.19c1.2-.34,2.05-.56,2.61-.68a4,4,0,0,0-1.07,1C18,66,19.06,67,19.91,66s3.24-2.39,3.75-2.21,1.7,2.56,2.39,2.73,1.19-1.7.34-2.21-1.19-2.9-1.19-2.9c.68-1.53,2-5.8,1.87-4.6-.08.67.36-3,.34-3.41L23.15,51.2A24.16,24.16,0,0,0,22,59Z" transform="translate(-5 -28.05)"/><path d="M90.27,49.33c-2.39.34-8,4.09-15.16,3.41S59.95,51,53.3,48.31s-16.87-6-19.76-8S25,33.65,23.49,31.78c0,0-3.92-3.58-7.67-3.41a11.89,11.89,0,0,0-2,.3,2.61,2.61,0,0,0-2.89-.31A4.12,4.12,0,0,0,9.61,30c-2.07.81-3.67,1.61-3.67,1.61S4.41,33,5.26,34.17s1,2.39,3.41,2.39a12.17,12.17,0,0,1,5.79,1c1.7.85,5.62,10.39,9.71,12.27s9.2,4.94,10.05,6.47,3.07,9.37,3.41,9.88-.51,2-2.21,2.56-1.7,1.53-1.19,1.7,2.9-.85,3.92-.85a26.42,26.42,0,0,0,3.07-.34s2,1.7,2.39.68-1.87-3.41-1.87-3.41a10.87,10.87,0,0,0-.34-4.43c-.68-3.07-1.53-8.86-8.18-14A15.46,15.46,0,0,1,41.89,59s9,1.7,14.31,1.53c0,0-2-4.09-1.7-6,0,0,2-5.28,8,0a24.69,24.69,0,0,1,4.77,5.45s6.64.85,10.73-.85,11.59-6.13,15.5-7.33S92.66,49,90.27,49.33ZM15.55,33.48a2,2,0,1,1,2-2A2,2,0,0,1,15.55,33.48Z" transform="translate(-5 -28.05)"/><path d="M15.43,30.77a2,2,0,0,0-1.44.86,2.07,2.07,0,0,0,1.5.64,2.5,2.5,0,0,0,1.6-.61A2.17,2.17,0,0,0,15.43,30.77Z" transform="translate(-5 -28.05)"/><text x="0" y="58.9" fill="#000000" font-size="5px" font-weight="bold" font-family="'Helvetica Neue', Helvetica, Arial-Unicode, Arial, Sans-serif">Created by parkjisun</text><text x="0" y="63.9" fill="#000000" font-size="5px" font-weight="bold" font-family="'Helvetica Neue', Helvetica, Arial-Unicode, Arial, Sans-serif">from the Noun Project</text></svg>